<svg xmlns="http://www.w3.org/2000/svg" xmlns:xlink="http://www.w3.org/1999/xlink" width="500" zoomAndPan="magnify" viewBox="0 0 375 374.999991" height="500" preserveAspectRatio="xMidYMid meet" version="1.0"><defs><g/><clipPath id="c75f9da904"><path d="M 21.628906 153.046875 L 176.128906 153.046875 L 176.128906 212 L 21.628906 212 Z M 21.628906 153.046875 " clip-rule="nonzero"/></clipPath></defs><g clip-path="url(#c75f9da904)"><path fill="#3f713e" d="M 176.355469 199.589844 L 176.355469 197.1875 L 176.335938 197.167969 L 173.9375 194.75 L 173.421875 192.199219 L 166.679688 189.914062 L 164.261719 185.074219 L 171.996094 185.074219 L 171.519531 182.65625 L 166.679688 180.238281 L 149.75 175.402344 L 140.074219 168.144531 L 135.238281 168.144531 L 140.074219 175.402344 L 108.628906 175.402344 L 106.210938 172.980469 L 103.792969 158.46875 L 120.722656 160.886719 L 130.398438 163.308594 L 137.65625 163.308594 L 120.722656 156.050781 L 101.375 153.632812 L 31.230469 153.632812 L 26.390625 156.050781 L 26.390625 158.46875 L 31.230469 158.46875 L 25.191406 172.582031 L 28.808594 175.402344 L 26.390625 175.402344 L 23.972656 177.820312 L 23.972656 180.238281 L 31.230469 180.238281 L 31.230469 182.65625 L 28.808594 185.074219 L 23.972656 187.496094 L 23.972656 189.914062 L 21.554688 192.332031 L 21.554688 199.589844 L 26.390625 204.425781 L 21.554688 204.425781 L 21.554688 208.195312 L 37.265625 211.683594 L 38.65625 211.683594 C 38.542969 210.902344 38.484375 210.082031 38.484375 209.265625 C 38.484375 199.929688 46.085938 192.332031 55.417969 192.332031 C 64.75 192.332031 72.347656 199.929688 72.347656 209.265625 C 72.347656 210.082031 72.292969 210.902344 72.175781 211.683594 L 135.425781 211.683594 C 135.3125 210.902344 135.253906 210.082031 135.253906 209.265625 C 135.253906 199.929688 142.855469 192.332031 152.1875 192.332031 C 161.519531 192.332031 169.117188 199.929688 169.117188 209.265625 C 169.117188 210.082031 169.0625 210.902344 168.945312 211.683594 L 176.375 211.683594 L 176.375 204.425781 L 173.957031 204.425781 L 173.957031 202.007812 Z M 57.835938 175.402344 L 36.066406 175.402344 L 33.648438 172.980469 L 36.066406 158.46875 L 65.09375 158.46875 Z M 86.859375 204.425781 L 79.605469 204.425781 L 77.1875 199.589844 L 86.859375 199.589844 Z M 96.535156 172.980469 L 94.117188 175.402344 L 69.929688 175.402344 L 67.511719 172.980469 L 69.929688 158.46875 L 98.953125 158.46875 Z M 96.535156 172.980469 " fill-opacity="1" fill-rule="nonzero"/></g><path fill="#3f713e" d="M 152.167969 197.167969 C 145.484375 197.167969 140.074219 202.578125 140.074219 209.265625 C 140.074219 215.949219 145.484375 221.359375 152.167969 221.359375 C 158.851562 221.359375 164.261719 215.949219 164.261719 209.265625 C 164.261719 202.578125 158.851562 197.167969 152.167969 197.167969 Z M 152.167969 214.101562 C 149.5 214.101562 147.332031 211.929688 147.332031 209.265625 C 147.332031 206.597656 149.5 204.425781 152.167969 204.425781 C 154.835938 204.425781 157.003906 206.597656 157.003906 209.265625 C 157.003906 211.929688 154.835938 214.101562 152.167969 214.101562 Z M 152.167969 214.101562 " fill-opacity="1" fill-rule="nonzero"/><path fill="#3f713e" d="M 55.417969 197.167969 C 48.730469 197.167969 43.324219 202.578125 43.324219 209.265625 C 43.324219 215.949219 48.730469 221.359375 55.417969 221.359375 C 62.101562 221.359375 67.511719 215.949219 67.511719 209.265625 C 67.511719 202.578125 62.101562 197.167969 55.417969 197.167969 Z M 55.417969 214.101562 C 52.75 214.101562 50.578125 211.929688 50.578125 209.265625 C 50.578125 206.597656 52.75 204.425781 55.417969 204.425781 C 58.082031 204.425781 60.253906 206.597656 60.253906 209.265625 C 60.253906 211.929688 58.082031 214.101562 55.417969 214.101562 Z M 55.417969 214.101562 " fill-opacity="1" fill-rule="nonzero"/><g fill="#000000" fill-opacity="1"><g transform="translate(181.484538, 195.313827)"><g><path d="M 10.621094 0.277344 C 16.414062 0.277344 20.101562 -2.605469 20.101562 -7.320312 L 20.101562 -7.734375 L 15.472656 -7.734375 L 15.472656 -7.320312 C 15.472656 -4.878906 14.085938 -3.714844 10.703125 -3.714844 C 6.628906 -3.714844 5.101562 -5.15625 5.101562 -9.289062 C 5.101562 -13.421875 6.628906 -14.863281 10.703125 -14.863281 C 14.085938 -14.863281 15.472656 -13.699219 15.472656 -11.257812 L 15.472656 -10.839844 L 20.101562 -10.839844 L 20.101562 -11.257812 C 20.101562 -15.972656 16.386719 -18.855469 10.621094 -18.855469 C 4.492188 -18.855469 0.691406 -15.085938 0.691406 -9.289062 C 0.691406 -3.492188 4.492188 0.277344 10.621094 0.277344 Z M 10.621094 0.277344 "/></g></g></g><g fill="#000000" fill-opacity="1"><g transform="translate(202.607837, 195.313827)"><g><path d="M 5.378906 0.277344 C 8.457031 0.277344 10.398438 -1.027344 11.035156 -3.1875 L 11.257812 -3.1875 L 11.257812 0 L 15.140625 0 L 15.140625 -8.152344 C 15.140625 -11.785156 12.949219 -14.167969 8.320312 -14.167969 C 3.742188 -14.167969 0.859375 -11.785156 0.859375 -8.347656 L 0.859375 -8.261719 L 5.046875 -8.261719 L 5.046875 -8.375 C 5.046875 -9.953125 5.90625 -10.507812 8.011719 -10.507812 C 10.230469 -10.507812 11.035156 -10.011719 11.035156 -8.207031 L 11.035156 -7.679688 L 5.074219 -7.070312 C 2.105469 -6.765625 0.582031 -5.488281 0.582031 -3.4375 C 0.582031 -1.109375 2.382812 0.277344 5.378906 0.277344 Z M 4.769531 -3.714844 C 4.769531 -4.382812 5.210938 -4.660156 6.210938 -4.742188 L 11.035156 -5.296875 C 10.925781 -3.328125 9.398438 -2.660156 6.570312 -2.660156 C 5.351562 -2.660156 4.769531 -2.96875 4.769531 -3.714844 Z M 4.769531 -3.714844 "/></g></g></g><g fill="#000000" fill-opacity="1"><g transform="translate(219.074058, 195.313827)"><g><path d="M 5.269531 0 L 5.269531 -7.015625 C 5.269531 -9.425781 5.988281 -10.425781 8.511719 -10.425781 C 10.898438 -10.425781 11.703125 -9.566406 11.703125 -7.265625 L 11.703125 0 L 15.859375 0 L 15.859375 -7.015625 C 15.859375 -9.425781 16.582031 -10.425781 19.105469 -10.425781 C 21.488281 -10.425781 22.292969 -9.566406 22.292969 -7.265625 L 22.292969 0 L 26.453125 0 L 26.453125 -8.652344 C 26.453125 -11.8125 24.707031 -14.167969 21.128906 -14.167969 C 17.550781 -14.167969 16.136719 -11.980469 15.804688 -9.621094 L 15.554688 -9.621094 C 15.25 -12.199219 13.613281 -14.167969 10.398438 -14.167969 C 6.902344 -14.167969 5.519531 -12.007812 5.183594 -9.675781 L 4.964844 -9.675781 L 4.964844 -13.890625 L 1.109375 -13.890625 L 1.109375 0 Z M 5.269531 0 "/></g></g></g><g fill="#000000" fill-opacity="1"><g transform="translate(246.850324, 195.313827)"><g><path d="M 5.269531 4.714844 L 5.269531 -3.742188 L 5.460938 -3.742188 C 5.933594 -1.304688 7.707031 0.277344 10.925781 0.277344 C 15.113281 0.277344 17.441406 -2.523438 17.441406 -6.933594 C 17.441406 -11.339844 15.054688 -14.167969 10.785156 -14.167969 C 7.515625 -14.167969 5.738281 -12.753906 5.242188 -10.09375 L 4.964844 -10.09375 L 4.964844 -13.890625 L 1.109375 -13.890625 L 1.109375 4.714844 Z M 5.269531 -6.738281 L 5.269531 -6.960938 C 5.269531 -9.425781 6.65625 -10.34375 9.34375 -10.34375 C 11.980469 -10.34375 13.226562 -9.484375 13.226562 -6.933594 C 13.226562 -4.410156 11.980469 -3.519531 9.316406 -3.519531 C 6.710938 -3.519531 5.269531 -4.351562 5.269531 -6.738281 Z M 5.269531 -6.738281 "/></g></g></g><g fill="#000000" fill-opacity="1"><g transform="translate(265.229274, 195.313827)"><g><path d="M 6.847656 0.277344 C 10.507812 0.277344 12.199219 -1.914062 12.5625 -4.242188 L 12.78125 -4.242188 L 12.78125 0 L 16.664062 0 L 16.664062 -13.890625 L 12.503906 -13.890625 L 12.503906 -6.847656 C 12.503906 -4.492188 11.535156 -3.4375 8.816406 -3.4375 C 6.183594 -3.4375 5.242188 -4.382812 5.242188 -6.628906 L 5.242188 -13.890625 L 1.082031 -13.890625 L 1.082031 -5.242188 C 1.082031 -2.136719 2.9375 0.277344 6.847656 0.277344 Z M 6.847656 0.277344 "/></g></g></g><g fill="#000000" fill-opacity="1"><g transform="translate(283.247865, 195.313827)"><g><path d="M 8.125 0.277344 C 12.421875 0.277344 15 -1.441406 15 -4.046875 C 15 -6.351562 13.613281 -7.597656 9.898438 -8.011719 L 6.933594 -8.375 C 5.101562 -8.597656 4.714844 -8.902344 4.714844 -9.621094 C 4.714844 -10.507812 5.242188 -10.871094 7.320312 -10.871094 C 9.871094 -10.871094 10.425781 -10.289062 10.425781 -9.148438 L 10.425781 -8.984375 L 14.585938 -8.984375 L 14.585938 -9.066406 C 14.585938 -12.449219 12.007812 -14.167969 7.457031 -14.167969 C 2.691406 -14.167969 0.609375 -12.226562 0.609375 -9.789062 C 0.609375 -7.457031 2.164062 -6.210938 4.9375 -5.90625 L 8.84375 -5.433594 C 10.480469 -5.210938 10.898438 -4.992188 10.898438 -4.214844 C 10.898438 -3.382812 10.371094 -3.023438 8.152344 -3.023438 C 5.796875 -3.023438 5.019531 -3.355469 5.019531 -4.601562 L 5.019531 -4.851562 L 0.859375 -4.851562 L 0.859375 -4.769531 C 0.859375 -1.554688 3.4375 0.277344 8.125 0.277344 Z M 8.125 0.277344 "/></g></g></g><g fill="#000000" fill-opacity="1"><g transform="translate(299.15968, 195.313827)"><g><path d="M 9.871094 0.277344 C 13.890625 0.277344 15.832031 -1.554688 16.46875 -3.992188 L 16.691406 -3.992188 L 16.691406 0 L 20.546875 0 L 20.546875 -9.816406 L 10.09375 -9.816406 L 10.09375 -6.738281 L 16.386719 -6.738281 C 16.277344 -4.382812 14.972656 -3.714844 10.703125 -3.714844 C 6.628906 -3.714844 5.101562 -5.15625 5.101562 -9.289062 C 5.101562 -13.421875 6.683594 -14.863281 10.898438 -14.863281 C 14.472656 -14.863281 15.886719 -13.835938 15.886719 -11.671875 L 15.886719 -11.453125 L 20.519531 -11.453125 L 20.519531 -11.671875 C 20.519531 -16.136719 16.832031 -18.855469 11.007812 -18.855469 C 4.628906 -18.855469 0.691406 -15.085938 0.691406 -9.289062 C 0.691406 -3.492188 4.1875 0.277344 9.871094 0.277344 Z M 9.871094 0.277344 "/></g></g></g><g fill="#000000" fill-opacity="1"><g transform="translate(320.948276, 195.313827)"><g><path d="M 8.511719 0.277344 C 13.253906 0.277344 16.441406 -2.550781 16.441406 -6.933594 C 16.441406 -11.367188 13.253906 -14.167969 8.511719 -14.167969 C 3.769531 -14.167969 0.582031 -11.367188 0.582031 -6.933594 C 0.582031 -2.550781 3.769531 0.277344 8.511719 0.277344 Z M 8.511719 -3.410156 C 5.683594 -3.410156 4.714844 -4.492188 4.714844 -6.933594 C 4.714844 -9.371094 5.683594 -10.507812 8.511719 -10.507812 C 11.3125 -10.507812 12.3125 -9.371094 12.3125 -6.933594 C 12.3125 -4.492188 11.3125 -3.410156 8.511719 -3.410156 Z M 8.511719 -3.410156 "/></g></g></g><g fill="#000000" fill-opacity="1"><g transform="translate(287.196254, 208.347553)"><g><path d="M 5.714844 0 C 9.007812 0 11.082031 -2.027344 11.082031 -5.304688 C 11.082031 -8.582031 9.007812 -10.609375 5.714844 -10.609375 L 0.886719 -10.609375 L 0.886719 0 Z M 5.714844 -9.070312 C 8.167969 -9.070312 9.277344 -8.027344 9.277344 -5.304688 C 9.277344 -2.582031 8.167969 -1.535156 5.714844 -1.535156 L 2.582031 -1.535156 L 2.582031 -9.070312 Z M 5.714844 -9.070312 "/></g></g></g><g fill="#000000" fill-opacity="1"><g transform="translate(298.943354, 208.347553)"><g><path d="M 2.5 0 L 2.5 -4.417969 C 2.5 -5.828125 3.054688 -6.570312 4.402344 -6.570312 C 5.574219 -6.570312 6.046875 -6.046875 6.046875 -4.921875 L 6.046875 -4.226562 L 7.742188 -4.226562 L 7.742188 -5.257812 C 7.742188 -6.746094 6.964844 -8.027344 5.175781 -8.027344 C 3.5625 -8.027344 2.707031 -7.011719 2.46875 -5.746094 L 2.359375 -5.746094 L 2.359375 -7.867188 L 0.792969 -7.867188 L 0.792969 0 Z M 2.5 0 "/></g></g></g><g fill="#000000" fill-opacity="1"><g transform="translate(307.160004, 208.347553)"><g><path d="M 2.5 -8.785156 L 2.5 -10.609375 L 0.792969 -10.609375 L 0.792969 -8.785156 Z M 2.5 0 L 2.5 -7.867188 L 0.792969 -7.867188 L 0.792969 0 Z M 2.5 0 "/></g></g></g><g fill="#000000" fill-opacity="1"><g transform="translate(310.643002, 208.347553)"><g><path d="M 5.84375 0 L 9.546875 -7.867188 L 7.695312 -7.867188 L 4.890625 -1.664062 L 4.765625 -1.664062 L 1.964844 -7.867188 L 0.078125 -7.867188 L 3.753906 0 Z M 5.84375 0 "/></g></g></g><g fill="#000000" fill-opacity="1"><g transform="translate(320.458647, 208.347553)"><g><path d="M 4.75 0.160156 C 7.09375 0.160156 8.738281 -0.996094 8.738281 -2.675781 L 8.738281 -2.816406 L 7.03125 -2.816406 L 7.03125 -2.691406 C 7.03125 -1.757812 6.347656 -1.21875 4.703125 -1.21875 C 2.882812 -1.21875 2.136719 -2.027344 2.074219 -3.546875 L 8.753906 -3.546875 C 8.800781 -3.785156 8.820312 -4.003906 8.820312 -4.289062 C 8.820312 -6.679688 7.15625 -8.027344 4.71875 -8.027344 C 2.152344 -8.027344 0.476562 -6.378906 0.476562 -3.925781 C 0.476562 -1.296875 2.167969 0.160156 4.75 0.160156 Z M 4.6875 -6.679688 C 6.363281 -6.679688 7.203125 -5.984375 7.203125 -4.527344 L 7.203125 -4.496094 L 2.089844 -4.496094 C 2.183594 -5.90625 2.945312 -6.679688 4.6875 -6.679688 Z M 4.6875 -6.679688 "/></g></g></g><g fill="#000000" fill-opacity="1"><g transform="translate(329.957657, 208.347553)"><g><path d="M 2.5 0 L 2.5 -4.417969 C 2.5 -5.828125 3.054688 -6.570312 4.402344 -6.570312 C 5.574219 -6.570312 6.046875 -6.046875 6.046875 -4.921875 L 6.046875 -4.226562 L 7.742188 -4.226562 L 7.742188 -5.257812 C 7.742188 -6.746094 6.964844 -8.027344 5.175781 -8.027344 C 3.5625 -8.027344 2.707031 -7.011719 2.46875 -5.746094 L 2.359375 -5.746094 L 2.359375 -7.867188 L 0.792969 -7.867188 L 0.792969 0 Z M 2.5 0 "/></g></g></g></svg>