<svg xmlns="http://www.w3.org/2000/svg" xmlns:xlink="http://www.w3.org/1999/xlink" width="500" zoomAndPan="magnify" viewBox="0 0 375 374.999991" height="500" preserveAspectRatio="xMidYMid meet" version="1.0"><defs><g/><clipPath id="feb1d19849"><path d="M 135.128906 138 L 240 138 L 240 178 L 135.128906 178 Z M 135.128906 138 " clip-rule="nonzero"/></clipPath></defs><g clip-path="url(#feb1d19849)"><path fill="#3f713e" d="M 239.78125 169.191406 L 239.78125 167.570312 L 239.769531 167.554688 L 238.144531 165.917969 L 237.796875 164.195312 L 233.238281 162.648438 L 231.601562 159.375 L 236.832031 159.375 L 236.511719 157.738281 L 233.238281 156.105469 L 221.785156 152.832031 L 215.242188 147.921875 L 211.96875 147.921875 L 215.242188 152.832031 L 193.972656 152.832031 L 192.339844 151.195312 L 190.703125 141.378906 L 202.152344 143.015625 L 208.699219 144.652344 L 213.605469 144.652344 L 202.152344 139.742188 L 189.066406 138.109375 L 141.621094 138.109375 L 138.351562 139.742188 L 138.351562 141.378906 L 141.621094 141.378906 L 137.539062 150.925781 L 139.984375 152.832031 L 138.351562 152.832031 L 136.714844 154.46875 L 136.714844 156.105469 L 141.621094 156.105469 L 141.621094 157.738281 L 139.984375 159.375 L 136.714844 161.011719 L 136.714844 162.648438 L 135.078125 164.285156 L 135.078125 169.191406 L 138.351562 172.464844 L 135.078125 172.464844 L 135.078125 175.015625 L 145.707031 177.371094 L 146.644531 177.371094 C 146.570312 176.84375 146.53125 176.289062 146.53125 175.734375 C 146.53125 169.421875 151.667969 164.285156 157.980469 164.285156 C 164.292969 164.285156 169.433594 169.421875 169.433594 175.734375 C 169.433594 176.289062 169.394531 176.84375 169.316406 177.371094 L 212.097656 177.371094 C 212.023438 176.84375 211.984375 176.289062 211.984375 175.734375 C 211.984375 169.421875 217.121094 164.285156 223.433594 164.285156 C 229.746094 164.285156 234.886719 169.421875 234.886719 175.734375 C 234.886719 176.289062 234.847656 176.84375 234.769531 177.371094 L 239.796875 177.371094 L 239.796875 172.464844 L 238.160156 172.464844 L 238.160156 170.828125 Z M 159.617188 152.832031 L 144.894531 152.832031 L 143.257812 151.195312 L 144.894531 141.378906 L 164.527344 141.378906 Z M 179.25 172.464844 L 174.34375 172.464844 L 172.707031 169.191406 L 179.25 169.191406 Z M 185.792969 151.195312 L 184.15625 152.832031 L 167.796875 152.832031 L 166.160156 151.195312 L 167.796875 141.378906 L 187.429688 141.378906 Z M 185.792969 151.195312 " fill-opacity="1" fill-rule="nonzero"/></g><path fill="#3f713e" d="M 223.421875 167.554688 C 218.902344 167.554688 215.242188 171.214844 215.242188 175.734375 C 215.242188 180.257812 218.902344 183.914062 223.421875 183.914062 C 227.945312 183.914062 231.601562 180.257812 231.601562 175.734375 C 231.601562 171.214844 227.945312 167.554688 223.421875 167.554688 Z M 223.421875 179.007812 C 221.617188 179.007812 220.148438 177.539062 220.148438 175.734375 C 220.148438 173.933594 221.617188 172.464844 223.421875 172.464844 C 225.226562 172.464844 226.695312 173.933594 226.695312 175.734375 C 226.695312 177.539062 225.226562 179.007812 223.421875 179.007812 Z M 223.421875 179.007812 " fill-opacity="1" fill-rule="nonzero"/><path fill="#3f713e" d="M 157.980469 167.554688 C 153.460938 167.554688 149.800781 171.214844 149.800781 175.734375 C 149.800781 180.257812 153.460938 183.914062 157.980469 183.914062 C 162.503906 183.914062 166.160156 180.257812 166.160156 175.734375 C 166.160156 171.214844 162.503906 167.554688 157.980469 167.554688 Z M 157.980469 179.007812 C 156.179688 179.007812 154.710938 177.539062 154.710938 175.734375 C 154.710938 173.933594 156.179688 172.464844 157.980469 172.464844 C 159.785156 172.464844 161.253906 173.933594 161.253906 175.734375 C 161.253906 177.539062 159.785156 179.007812 157.980469 179.007812 Z M 157.980469 179.007812 " fill-opacity="1" fill-rule="nonzero"/><g fill="#ffffff" fill-opacity="1"><g transform="translate(52.20229, 224.038344)"><g><path d="M 18.359375 0.480469 C 28.375 0.480469 34.75 -4.503906 34.75 -12.652344 L 34.75 -13.375 L 26.746094 -13.375 L 26.746094 -12.652344 C 26.746094 -8.4375 24.351562 -6.421875 18.5 -6.421875 C 11.457031 -6.421875 8.820312 -8.914062 8.820312 -16.058594 C 8.820312 -23.199219 11.457031 -25.691406 18.5 -25.691406 C 24.351562 -25.691406 26.746094 -23.679688 26.746094 -19.460938 L 26.746094 -18.742188 L 34.75 -18.742188 L 34.75 -19.460938 C 34.75 -27.609375 28.328125 -32.59375 18.359375 -32.59375 C 7.765625 -32.59375 1.199219 -26.074219 1.199219 -16.058594 C 1.199219 -6.039062 7.765625 0.480469 18.359375 0.480469 Z M 18.359375 0.480469 "/></g></g></g><g fill="#ffffff" fill-opacity="1"><g transform="translate(88.724767, 224.038344)"><g><path d="M 9.300781 0.480469 C 14.621094 0.480469 17.976562 -1.773438 19.078125 -5.511719 L 19.460938 -5.511719 L 19.460938 0 L 26.171875 0 L 26.171875 -14.09375 C 26.171875 -20.371094 22.382812 -24.492188 14.378906 -24.492188 C 6.472656 -24.492188 1.484375 -20.371094 1.484375 -14.425781 L 1.484375 -14.285156 L 8.722656 -14.285156 L 8.722656 -14.476562 C 8.722656 -17.207031 10.210938 -18.167969 13.851562 -18.167969 C 17.6875 -18.167969 19.078125 -17.304688 19.078125 -14.1875 L 19.078125 -13.277344 L 8.773438 -12.222656 C 3.644531 -11.695312 1.007812 -9.492188 1.007812 -5.945312 C 1.007812 -1.917969 4.121094 0.480469 9.300781 0.480469 Z M 8.246094 -6.421875 C 8.246094 -7.574219 9.011719 -8.050781 10.738281 -8.195312 L 19.078125 -9.15625 C 18.886719 -5.75 16.25 -4.601562 11.359375 -4.601562 C 9.25 -4.601562 8.246094 -5.128906 8.246094 -6.421875 Z M 8.246094 -6.421875 "/></g></g></g><g fill="#ffffff" fill-opacity="1"><g transform="translate(117.195068, 224.038344)"><g><path d="M 9.105469 0 L 9.105469 -12.125 C 9.105469 -16.296875 10.351562 -18.023438 14.714844 -18.023438 C 18.835938 -18.023438 20.226562 -16.535156 20.226562 -12.558594 L 20.226562 0 L 27.417969 0 L 27.417969 -12.125 C 27.417969 -16.296875 28.664062 -18.023438 33.027344 -18.023438 C 37.148438 -18.023438 38.539062 -16.535156 38.539062 -12.558594 L 38.539062 0 L 45.726562 0 L 45.726562 -14.953125 C 45.726562 -20.417969 42.707031 -24.492188 36.523438 -24.492188 C 30.339844 -24.492188 27.898438 -20.707031 27.320312 -16.632812 L 26.890625 -16.632812 C 26.363281 -21.089844 23.535156 -24.492188 17.976562 -24.492188 C 11.933594 -24.492188 9.539062 -20.753906 8.964844 -16.726562 L 8.578125 -16.726562 L 8.578125 -24.015625 L 1.917969 -24.015625 L 1.917969 0 Z M 9.105469 0 "/></g></g></g><g fill="#ffffff" fill-opacity="1"><g transform="translate(165.220665, 224.038344)"><g><path d="M 9.105469 8.148438 L 9.105469 -6.472656 L 9.441406 -6.472656 C 10.257812 -2.253906 13.324219 0.480469 18.886719 0.480469 C 26.125 0.480469 30.148438 -4.363281 30.148438 -11.984375 C 30.148438 -19.605469 26.027344 -24.492188 18.644531 -24.492188 C 12.988281 -24.492188 9.921875 -22.050781 9.058594 -17.449219 L 8.578125 -17.449219 L 8.578125 -24.015625 L 1.917969 -24.015625 L 1.917969 8.148438 Z M 9.105469 -11.648438 L 9.105469 -12.03125 C 9.105469 -16.296875 11.503906 -17.878906 16.152344 -17.878906 C 20.707031 -17.878906 22.863281 -16.394531 22.863281 -11.984375 C 22.863281 -7.621094 20.707031 -6.085938 16.105469 -6.085938 C 11.601562 -6.085938 9.105469 -7.527344 9.105469 -11.648438 Z M 9.105469 -11.648438 "/></g></g></g><g fill="#ffffff" fill-opacity="1"><g transform="translate(196.998114, 224.038344)"><g><path d="M 11.839844 0.480469 C 18.167969 0.480469 21.089844 -3.308594 21.714844 -7.332031 L 22.097656 -7.332031 L 22.097656 0 L 28.808594 0 L 28.808594 -24.015625 L 21.617188 -24.015625 L 21.617188 -11.839844 C 21.617188 -7.765625 19.941406 -5.945312 15.242188 -5.945312 C 10.6875 -5.945312 9.058594 -7.574219 9.058594 -11.457031 L 9.058594 -24.015625 L 1.871094 -24.015625 L 1.871094 -9.058594 C 1.871094 -3.691406 5.082031 0.480469 11.839844 0.480469 Z M 11.839844 0.480469 "/></g></g></g><g fill="#ffffff" fill-opacity="1"><g transform="translate(228.152477, 224.038344)"><g><path d="M 14.042969 0.480469 C 21.472656 0.480469 25.929688 -2.492188 25.929688 -7 C 25.929688 -10.976562 23.535156 -13.132812 17.113281 -13.851562 L 11.984375 -14.476562 C 8.820312 -14.859375 8.148438 -15.386719 8.148438 -16.632812 C 8.148438 -18.167969 9.058594 -18.789062 12.652344 -18.789062 C 17.0625 -18.789062 18.023438 -17.78125 18.023438 -15.816406 L 18.023438 -15.53125 L 25.210938 -15.53125 L 25.210938 -15.675781 C 25.210938 -21.523438 20.753906 -24.492188 12.894531 -24.492188 C 4.648438 -24.492188 1.054688 -21.136719 1.054688 -16.921875 C 1.054688 -12.894531 3.738281 -10.738281 8.53125 -10.210938 L 15.289062 -9.394531 C 18.117188 -9.011719 18.835938 -8.628906 18.835938 -7.285156 C 18.835938 -5.847656 17.925781 -5.226562 14.09375 -5.226562 C 10.019531 -5.226562 8.675781 -5.800781 8.675781 -7.957031 L 8.675781 -8.386719 L 1.484375 -8.386719 L 1.484375 -8.246094 C 1.484375 -2.683594 5.945312 0.480469 14.042969 0.480469 Z M 14.042969 0.480469 "/></g></g></g><g fill="#ffffff" fill-opacity="1"><g transform="translate(255.664175, 224.038344)"><g><path d="M 17.0625 0.480469 C 24.015625 0.480469 27.371094 -2.683594 28.472656 -6.902344 L 28.855469 -6.902344 L 28.855469 0 L 35.519531 0 L 35.519531 -16.96875 L 17.449219 -16.96875 L 17.449219 -11.648438 L 28.328125 -11.648438 C 28.136719 -7.574219 25.882812 -6.421875 18.5 -6.421875 C 11.457031 -6.421875 8.820312 -8.914062 8.820312 -16.058594 C 8.820312 -23.199219 11.550781 -25.691406 18.835938 -25.691406 C 25.019531 -25.691406 27.464844 -23.917969 27.464844 -20.179688 L 27.464844 -19.796875 L 35.46875 -19.796875 L 35.46875 -20.179688 C 35.46875 -27.898438 29.09375 -32.59375 19.027344 -32.59375 C 8.003906 -32.59375 1.199219 -26.074219 1.199219 -16.058594 C 1.199219 -6.039062 7.238281 0.480469 17.0625 0.480469 Z M 17.0625 0.480469 "/></g></g></g><g fill="#ffffff" fill-opacity="1"><g transform="translate(293.336978, 224.038344)"><g><path d="M 14.714844 0.480469 C 22.910156 0.480469 28.425781 -4.410156 28.425781 -11.984375 C 28.425781 -19.652344 22.910156 -24.492188 14.714844 -24.492188 C 6.519531 -24.492188 1.007812 -19.652344 1.007812 -11.984375 C 1.007812 -4.410156 6.519531 0.480469 14.714844 0.480469 Z M 14.714844 -5.894531 C 9.824219 -5.894531 8.148438 -7.765625 8.148438 -11.984375 C 8.148438 -16.203125 9.824219 -18.167969 14.714844 -18.167969 C 19.554688 -18.167969 21.28125 -16.203125 21.28125 -11.984375 C 21.28125 -7.765625 19.554688 -5.894531 14.714844 -5.894531 Z M 14.714844 -5.894531 "/></g></g></g></svg>