<svg xmlns="http://www.w3.org/2000/svg" xmlns:xlink="http://www.w3.org/1999/xlink" width="500" zoomAndPan="magnify" viewBox="0 0 375 149.999998" height="200" preserveAspectRatio="xMidYMid meet" version="1.0"><defs><g/><clipPath id="f723792bb6"><path d="M 0 36.054688 L 174.648438 36.054688 L 174.648438 103 L 0 103 Z M 0 36.054688 " clip-rule="nonzero"/></clipPath></defs><rect x="-37.5" width="450" fill="#ffffff" y="-15" height="179.999997" fill-opacity="1"/><rect x="-37.5" width="450" fill="#000000" y="-15" height="179.999997" fill-opacity="1"/><g clip-path="url(#f723792bb6)"><path fill="#3f713e" d="M 174.902344 88.664062 L 174.902344 85.953125 L 174.882812 85.929688 L 172.167969 83.195312 L 171.585938 80.3125 L 163.964844 77.726562 L 161.230469 72.261719 L 169.972656 72.261719 L 169.433594 69.527344 L 163.964844 66.792969 L 144.828125 61.324219 L 133.890625 53.121094 L 128.421875 53.121094 L 133.890625 61.324219 L 98.34375 61.324219 L 95.609375 58.589844 L 92.875 42.183594 L 112.015625 44.917969 L 122.953125 47.652344 L 131.15625 47.652344 L 112.015625 39.449219 L 90.140625 36.714844 L 10.851562 36.714844 L 5.382812 39.449219 L 5.382812 42.183594 L 10.851562 42.183594 L 4.027344 58.136719 L 8.117188 61.324219 L 5.382812 61.324219 L 2.648438 64.058594 L 2.648438 66.792969 L 10.851562 66.792969 L 10.851562 69.527344 L 8.117188 72.261719 L 2.648438 74.996094 L 2.648438 77.726562 L -0.0859375 80.460938 L -0.0859375 88.664062 L 5.382812 94.132812 L -0.0859375 94.132812 L -0.0859375 98.394531 L 17.675781 102.335938 L 19.246094 102.335938 C 19.117188 101.453125 19.054688 100.527344 19.054688 99.601562 C 19.054688 89.050781 27.644531 80.460938 38.191406 80.460938 C 48.742188 80.460938 57.332031 89.050781 57.332031 99.601562 C 57.332031 100.527344 57.265625 101.453125 57.136719 102.335938 L 128.636719 102.335938 C 128.507812 101.453125 128.441406 100.527344 128.441406 99.601562 C 128.441406 89.050781 137.03125 80.460938 147.582031 80.460938 C 158.132812 80.460938 166.722656 89.050781 166.722656 99.601562 C 166.722656 100.527344 166.65625 101.453125 166.527344 102.335938 L 174.925781 102.335938 L 174.925781 94.132812 L 172.191406 94.132812 L 172.191406 91.398438 Z M 40.925781 61.324219 L 16.320312 61.324219 L 13.585938 58.589844 L 16.320312 42.183594 L 49.128906 42.183594 Z M 73.738281 94.132812 L 65.535156 94.132812 L 62.800781 88.664062 L 73.738281 88.664062 Z M 84.675781 58.589844 L 81.941406 61.324219 L 54.597656 61.324219 L 51.863281 58.589844 L 54.597656 42.183594 L 87.410156 42.183594 Z M 84.675781 58.589844 " fill-opacity="1" fill-rule="nonzero"/></g><path fill="#3f713e" d="M 147.5625 85.929688 C 140.003906 85.929688 133.890625 92.046875 133.890625 99.601562 C 133.890625 107.160156 140.003906 113.273438 147.5625 113.273438 C 155.117188 113.273438 161.230469 107.160156 161.230469 99.601562 C 161.230469 92.046875 155.117188 85.929688 147.5625 85.929688 Z M 147.5625 105.070312 C 144.546875 105.070312 142.09375 102.617188 142.09375 99.601562 C 142.09375 96.585938 144.546875 94.132812 147.5625 94.132812 C 150.574219 94.132812 153.027344 96.585938 153.027344 99.601562 C 153.027344 102.617188 150.574219 105.070312 147.5625 105.070312 Z M 147.5625 105.070312 " fill-opacity="1" fill-rule="nonzero"/><path fill="#3f713e" d="M 38.191406 85.929688 C 30.636719 85.929688 24.523438 92.046875 24.523438 99.601562 C 24.523438 107.160156 30.636719 113.273438 38.191406 113.273438 C 45.75 113.273438 51.863281 107.160156 51.863281 99.601562 C 51.863281 92.046875 45.75 85.929688 38.191406 85.929688 Z M 38.191406 105.070312 C 35.179688 105.070312 32.722656 102.617188 32.722656 99.601562 C 32.722656 96.585938 35.179688 94.132812 38.191406 94.132812 C 41.207031 94.132812 43.660156 96.585938 43.660156 99.601562 C 43.660156 102.617188 41.207031 105.070312 38.191406 105.070312 Z M 38.191406 105.070312 " fill-opacity="1" fill-rule="nonzero"/><g fill="#ffffff" fill-opacity="1"><g transform="translate(180.700075, 83.832838)"><g><path d="M 12.003906 0.3125 C 18.554688 0.3125 22.722656 -2.945312 22.722656 -8.273438 L 22.722656 -8.746094 L 17.488281 -8.746094 L 17.488281 -8.273438 C 17.488281 -5.515625 15.921875 -4.199219 12.097656 -4.199219 C 7.492188 -4.199219 5.765625 -5.828125 5.765625 -10.5 C 5.765625 -15.171875 7.492188 -16.800781 12.097656 -16.800781 C 15.921875 -16.800781 17.488281 -15.484375 17.488281 -12.726562 L 17.488281 -12.253906 L 22.722656 -12.253906 L 22.722656 -12.726562 C 22.722656 -18.054688 18.523438 -21.3125 12.003906 -21.3125 C 5.078125 -21.3125 0.785156 -17.050781 0.785156 -10.5 C 0.785156 -3.949219 5.078125 0.3125 12.003906 0.3125 Z M 12.003906 0.3125 "/></g></g></g><g fill="#ffffff" fill-opacity="1"><g transform="translate(204.577961, 83.832838)"><g><path d="M 6.082031 0.3125 C 9.558594 0.3125 11.753906 -1.160156 12.476562 -3.605469 L 12.726562 -3.605469 L 12.726562 0 L 17.113281 0 L 17.113281 -9.214844 C 17.113281 -13.320312 14.636719 -16.015625 9.402344 -16.015625 C 4.230469 -16.015625 0.972656 -13.320312 0.972656 -9.433594 L 0.972656 -9.339844 L 5.703125 -9.339844 L 5.703125 -9.464844 C 5.703125 -11.253906 6.675781 -11.878906 9.058594 -11.878906 C 11.566406 -11.878906 12.476562 -11.316406 12.476562 -9.277344 L 12.476562 -8.683594 L 5.734375 -7.992188 C 2.382812 -7.648438 0.660156 -6.207031 0.660156 -3.886719 C 0.660156 -1.253906 2.695312 0.3125 6.082031 0.3125 Z M 5.390625 -4.199219 C 5.390625 -4.953125 5.894531 -5.265625 7.019531 -5.359375 L 12.476562 -5.988281 C 12.347656 -3.761719 10.625 -3.007812 7.429688 -3.007812 C 6.050781 -3.007812 5.390625 -3.355469 5.390625 -4.199219 Z M 5.390625 -4.199219 "/></g></g></g><g fill="#ffffff" fill-opacity="1"><g transform="translate(223.191463, 83.832838)"><g><path d="M 5.957031 0 L 5.957031 -7.929688 C 5.957031 -10.65625 6.769531 -11.785156 9.621094 -11.785156 C 12.316406 -11.785156 13.226562 -10.8125 13.226562 -8.210938 L 13.226562 0 L 17.929688 0 L 17.929688 -7.929688 C 17.929688 -10.65625 18.742188 -11.785156 21.597656 -11.785156 C 24.292969 -11.785156 25.199219 -10.8125 25.199219 -8.210938 L 25.199219 0 L 29.902344 0 L 29.902344 -9.78125 C 29.902344 -13.351562 27.925781 -16.015625 23.882812 -16.015625 C 19.839844 -16.015625 18.242188 -13.539062 17.867188 -10.875 L 17.582031 -10.875 C 17.238281 -13.792969 15.390625 -16.015625 11.753906 -16.015625 C 7.804688 -16.015625 6.238281 -13.570312 5.859375 -10.9375 L 5.609375 -10.9375 L 5.609375 -15.703125 L 1.253906 -15.703125 L 1.253906 0 Z M 5.957031 0 "/></g></g></g><g fill="#ffffff" fill-opacity="1"><g transform="translate(254.589898, 83.832838)"><g><path d="M 5.957031 5.328125 L 5.957031 -4.230469 L 6.175781 -4.230469 C 6.707031 -1.472656 8.714844 0.3125 12.347656 0.3125 C 17.082031 0.3125 19.714844 -2.851562 19.714844 -7.835938 C 19.714844 -12.820312 17.019531 -16.015625 12.191406 -16.015625 C 8.496094 -16.015625 6.488281 -14.417969 5.925781 -11.410156 L 5.609375 -11.410156 L 5.609375 -15.703125 L 1.253906 -15.703125 L 1.253906 5.328125 Z M 5.957031 -7.617188 L 5.957031 -7.867188 C 5.957031 -10.65625 7.523438 -11.691406 10.5625 -11.691406 C 13.539062 -11.691406 14.949219 -10.71875 14.949219 -7.835938 C 14.949219 -4.984375 13.539062 -3.980469 10.53125 -3.980469 C 7.585938 -3.980469 5.957031 -4.921875 5.957031 -7.617188 Z M 5.957031 -7.617188 "/></g></g></g><g fill="#ffffff" fill-opacity="1"><g transform="translate(275.365558, 83.832838)"><g><path d="M 7.742188 0.3125 C 11.878906 0.3125 13.792969 -2.164062 14.199219 -4.796875 L 14.449219 -4.796875 L 14.449219 0 L 18.835938 0 L 18.835938 -15.703125 L 14.136719 -15.703125 L 14.136719 -7.742188 C 14.136719 -5.078125 13.039062 -3.886719 9.96875 -3.886719 C 6.988281 -3.886719 5.925781 -4.953125 5.925781 -7.492188 L 5.925781 -15.703125 L 1.222656 -15.703125 L 1.222656 -5.925781 C 1.222656 -2.414062 3.324219 0.3125 7.742188 0.3125 Z M 7.742188 0.3125 "/></g></g></g><g fill="#ffffff" fill-opacity="1"><g transform="translate(295.733867, 83.832838)"><g><path d="M 9.183594 0.3125 C 14.042969 0.3125 16.957031 -1.628906 16.957031 -4.578125 C 16.957031 -7.179688 15.390625 -8.589844 11.191406 -9.058594 L 7.835938 -9.464844 C 5.765625 -9.714844 5.328125 -10.0625 5.328125 -10.875 C 5.328125 -11.878906 5.925781 -12.285156 8.273438 -12.285156 C 11.160156 -12.285156 11.785156 -11.628906 11.785156 -10.34375 L 11.785156 -10.15625 L 16.488281 -10.15625 L 16.488281 -10.25 C 16.488281 -14.074219 13.570312 -16.015625 8.429688 -16.015625 C 3.039062 -16.015625 0.691406 -13.824219 0.691406 -11.0625 C 0.691406 -8.429688 2.445312 -7.019531 5.578125 -6.675781 L 10 -6.144531 C 11.847656 -5.894531 12.316406 -5.640625 12.316406 -4.765625 C 12.316406 -3.824219 11.722656 -3.417969 9.214844 -3.417969 C 6.550781 -3.417969 5.671875 -3.792969 5.671875 -5.203125 L 5.671875 -5.484375 L 0.972656 -5.484375 L 0.972656 -5.390625 C 0.972656 -1.753906 3.886719 0.3125 9.183594 0.3125 Z M 9.183594 0.3125 "/></g></g></g><g fill="#ffffff" fill-opacity="1"><g transform="translate(313.720664, 83.832838)"><g><path d="M 11.160156 0.3125 C 15.703125 0.3125 17.898438 -1.753906 18.617188 -4.511719 L 18.867188 -4.511719 L 18.867188 0 L 23.226562 0 L 23.226562 -11.097656 L 11.410156 -11.097656 L 11.410156 -7.617188 L 18.523438 -7.617188 C 18.398438 -4.953125 16.925781 -4.199219 12.097656 -4.199219 C 7.492188 -4.199219 5.765625 -5.828125 5.765625 -10.5 C 5.765625 -15.171875 7.554688 -16.800781 12.316406 -16.800781 C 16.363281 -16.800781 17.960938 -15.640625 17.960938 -13.195312 L 17.960938 -12.945312 L 23.195312 -12.945312 L 23.195312 -13.195312 C 23.195312 -18.242188 19.027344 -21.3125 12.445312 -21.3125 C 5.234375 -21.3125 0.785156 -17.050781 0.785156 -10.5 C 0.785156 -3.949219 4.734375 0.3125 11.160156 0.3125 Z M 11.160156 0.3125 "/></g></g></g><g fill="#ffffff" fill-opacity="1"><g transform="translate(338.350606, 83.832838)"><g><path d="M 9.621094 0.3125 C 14.984375 0.3125 18.585938 -2.882812 18.585938 -7.835938 C 18.585938 -12.851562 14.984375 -16.015625 9.621094 -16.015625 C 4.261719 -16.015625 0.660156 -12.851562 0.660156 -7.835938 C 0.660156 -2.882812 4.261719 0.3125 9.621094 0.3125 Z M 9.621094 -3.855469 C 6.425781 -3.855469 5.328125 -5.078125 5.328125 -7.835938 C 5.328125 -10.59375 6.425781 -11.878906 9.621094 -11.878906 C 12.789062 -11.878906 13.917969 -10.59375 13.917969 -7.835938 C 13.917969 -5.078125 12.789062 -3.855469 9.621094 -3.855469 Z M 9.621094 -3.855469 "/></g></g></g><g fill="#ffffff" fill-opacity="1"><g transform="translate(300.197142, 98.566141)"><g><path d="M 6.460938 0 C 10.183594 0 12.527344 -2.289062 12.527344 -5.996094 C 12.527344 -9.699219 10.183594 -11.992188 6.460938 -11.992188 L 1.003906 -11.992188 L 1.003906 0 Z M 6.460938 -10.253906 C 9.234375 -10.253906 10.488281 -9.074219 10.488281 -5.996094 C 10.488281 -2.917969 9.234375 -1.734375 6.460938 -1.734375 L 2.917969 -1.734375 L 2.917969 -10.253906 Z M 6.460938 -10.253906 "/></g></g></g><g fill="#ffffff" fill-opacity="1"><g transform="translate(313.476125, 98.566141)"><g><path d="M 2.828125 0 L 2.828125 -4.992188 C 2.828125 -6.585938 3.453125 -7.425781 4.976562 -7.425781 C 6.300781 -7.425781 6.835938 -6.835938 6.835938 -5.566406 L 6.835938 -4.777344 L 8.75 -4.777344 L 8.75 -5.941406 C 8.75 -7.625 7.875 -9.074219 5.851562 -9.074219 C 4.027344 -9.074219 3.058594 -7.929688 2.792969 -6.496094 L 2.667969 -6.496094 L 2.667969 -8.894531 L 0.894531 -8.894531 L 0.894531 0 Z M 2.828125 0 "/></g></g></g><g fill="#ffffff" fill-opacity="1"><g transform="translate(322.764269, 98.566141)"><g><path d="M 2.828125 -9.933594 L 2.828125 -11.992188 L 0.894531 -11.992188 L 0.894531 -9.933594 Z M 2.828125 0 L 2.828125 -8.894531 L 0.894531 -8.894531 L 0.894531 0 Z M 2.828125 0 "/></g></g></g><g fill="#ffffff" fill-opacity="1"><g transform="translate(326.701469, 98.566141)"><g><path d="M 6.605469 0 L 10.792969 -8.894531 L 8.699219 -8.894531 L 5.53125 -1.878906 L 5.386719 -1.878906 L 2.21875 -8.894531 L 0.0898438 -8.894531 L 4.242188 0 Z M 6.605469 0 "/></g></g></g><g fill="#ffffff" fill-opacity="1"><g transform="translate(337.797125, 98.566141)"><g><path d="M 5.367188 0.179688 C 8.019531 0.179688 9.878906 -1.128906 9.878906 -3.023438 L 9.878906 -3.1875 L 7.945312 -3.1875 L 7.945312 -3.042969 C 7.945312 -1.988281 7.175781 -1.378906 5.316406 -1.378906 C 3.257812 -1.378906 2.417969 -2.289062 2.34375 -4.007812 L 9.898438 -4.007812 C 9.949219 -4.277344 9.96875 -4.527344 9.96875 -4.851562 C 9.96875 -7.550781 8.089844 -9.074219 5.332031 -9.074219 C 2.433594 -9.074219 0.535156 -7.210938 0.535156 -4.4375 C 0.535156 -1.46875 2.453125 0.179688 5.367188 0.179688 Z M 5.296875 -7.550781 C 7.195312 -7.550781 8.144531 -6.765625 8.144531 -5.117188 L 8.144531 -5.082031 L 2.363281 -5.082031 C 2.46875 -6.675781 3.328125 -7.550781 5.296875 -7.550781 Z M 5.296875 -7.550781 "/></g></g></g><g fill="#ffffff" fill-opacity="1"><g transform="translate(348.534856, 98.566141)"><g><path d="M 2.828125 0 L 2.828125 -4.992188 C 2.828125 -6.585938 3.453125 -7.425781 4.976562 -7.425781 C 6.300781 -7.425781 6.835938 -6.835938 6.835938 -5.566406 L 6.835938 -4.777344 L 8.75 -4.777344 L 8.75 -5.941406 C 8.75 -7.625 7.875 -9.074219 5.851562 -9.074219 C 4.027344 -9.074219 3.058594 -7.929688 2.792969 -6.496094 L 2.667969 -6.496094 L 2.667969 -8.894531 L 0.894531 -8.894531 L 0.894531 0 Z M 2.828125 0 "/></g></g></g></svg>