<svg xmlns="http://www.w3.org/2000/svg" xmlns:xlink="http://www.w3.org/1999/xlink" width="500" zoomAndPan="magnify" viewBox="0 0 375 374.999991" height="500" preserveAspectRatio="xMidYMid meet" version="1.0"><defs><clipPath id="571ac76c08"><path d="M 4.34375 107 L 370.34375 107 L 370.34375 245 L 4.34375 245 Z M 4.34375 107 " clip-rule="nonzero"/></clipPath></defs><g clip-path="url(#571ac76c08)"><path fill="#3f713e" d="M 370.378906 216.105469 L 370.378906 210.429688 L 370.335938 210.382812 L 364.65625 204.660156 L 363.441406 198.625 L 347.492188 193.214844 L 341.769531 181.773438 L 360.0625 181.773438 L 358.9375 176.050781 L 347.492188 170.328125 L 307.4375 158.882812 L 284.546875 141.71875 L 273.105469 141.71875 L 284.546875 158.882812 L 210.160156 158.882812 L 204.4375 153.160156 L 198.714844 118.828125 L 238.769531 124.550781 L 261.660156 130.273438 L 278.824219 130.273438 L 238.769531 113.105469 L 192.996094 107.386719 L 27.054688 107.386719 L 15.609375 113.105469 L 15.609375 118.828125 L 27.054688 118.828125 L 12.769531 152.214844 L 21.332031 158.882812 L 15.609375 158.882812 L 9.886719 164.605469 L 9.886719 170.328125 L 27.054688 170.328125 L 27.054688 176.050781 L 21.332031 181.773438 L 9.886719 187.496094 L 9.886719 193.214844 L 4.164062 198.9375 L 4.164062 216.105469 L 15.609375 227.550781 L 4.164062 227.550781 L 4.164062 236.46875 L 41.335938 244.714844 L 44.625 244.714844 C 44.355469 242.867188 44.21875 240.929688 44.21875 238.992188 C 44.21875 216.914062 62.199219 198.9375 84.273438 198.9375 C 106.351562 198.9375 124.328125 216.914062 124.328125 238.992188 C 124.328125 240.929688 124.195312 242.867188 123.925781 244.714844 L 273.554688 244.714844 C 273.285156 242.867188 273.148438 240.929688 273.148438 238.992188 C 273.148438 216.914062 291.125 198.9375 313.203125 198.9375 C 335.28125 198.9375 353.257812 216.914062 353.257812 238.992188 C 353.257812 240.929688 353.125 242.867188 352.851562 244.714844 L 370.425781 244.714844 L 370.425781 227.550781 L 364.703125 227.550781 L 364.703125 221.828125 Z M 89.996094 158.882812 L 38.496094 158.882812 L 32.777344 153.160156 L 38.496094 118.828125 L 107.164062 118.828125 Z M 158.660156 227.550781 L 141.496094 227.550781 L 135.773438 216.105469 L 158.660156 216.105469 Z M 181.550781 153.160156 L 175.828125 158.882812 L 118.605469 158.882812 L 112.886719 153.160156 L 118.605469 118.828125 L 187.273438 118.828125 Z M 181.550781 153.160156 " fill-opacity="1" fill-rule="nonzero"/></g><path fill="#3f713e" d="M 313.160156 210.382812 C 297.34375 210.382812 284.546875 223.179688 284.546875 238.992188 C 284.546875 254.808594 297.34375 267.605469 313.160156 267.605469 C 328.972656 267.605469 341.769531 254.808594 341.769531 238.992188 C 341.769531 223.179688 328.972656 210.382812 313.160156 210.382812 Z M 313.160156 250.4375 C 306.851562 250.4375 301.714844 245.300781 301.714844 238.992188 C 301.714844 232.683594 306.851562 227.550781 313.160156 227.550781 C 319.464844 227.550781 324.601562 232.683594 324.601562 238.992188 C 324.601562 245.300781 319.464844 250.4375 313.160156 250.4375 Z M 313.160156 250.4375 " fill-opacity="1" fill-rule="nonzero"/><path fill="#3f713e" d="M 84.273438 210.382812 C 68.460938 210.382812 55.664062 223.179688 55.664062 238.992188 C 55.664062 254.808594 68.460938 267.605469 84.273438 267.605469 C 100.089844 267.605469 112.886719 254.808594 112.886719 238.992188 C 112.886719 223.179688 100.089844 210.382812 84.273438 210.382812 Z M 84.273438 250.4375 C 77.96875 250.4375 72.832031 245.300781 72.832031 238.992188 C 72.832031 232.683594 77.96875 227.550781 84.273438 227.550781 C 90.582031 227.550781 95.71875 232.683594 95.71875 238.992188 C 95.71875 245.300781 90.582031 250.4375 84.273438 250.4375 Z M 84.273438 250.4375 " fill-opacity="1" fill-rule="nonzero"/></svg>