<svg xmlns="http://www.w3.org/2000/svg" xmlns:xlink="http://www.w3.org/1999/xlink" width="500" zoomAndPan="magnify" viewBox="0 0 375 374.999991" height="500" preserveAspectRatio="xMidYMid meet" version="1.0"><defs><clipPath id="6d5a65235f"><path d="M 30.742188 118 L 344.242188 118 L 344.242188 237 L 30.742188 237 Z M 30.742188 118 " clip-rule="nonzero"/></clipPath></defs><rect x="-37.5" width="450" fill="#ffffff" y="-37.499999" height="449.999989" fill-opacity="1"/><rect x="-37.5" width="450" fill="#ffffff" y="-37.499999" height="449.999989" fill-opacity="1"/><g clip-path="url(#6d5a65235f)"><path fill="#3f713e" d="M 344.023438 211.984375 L 344.023438 207.128906 L 343.984375 207.089844 L 339.125 202.191406 L 338.085938 197.023438 L 324.433594 192.398438 L 319.535156 182.601562 L 335.191406 182.601562 L 334.230469 177.703125 L 324.433594 172.808594 L 290.152344 163.011719 L 270.5625 148.320312 L 260.765625 148.320312 L 270.5625 163.011719 L 206.894531 163.011719 L 202 158.113281 L 197.101562 128.730469 L 231.382812 133.628906 L 250.972656 138.523438 L 265.664062 138.523438 L 231.382812 123.832031 L 192.203125 118.933594 L 50.179688 118.933594 L 40.382812 123.832031 L 40.382812 128.730469 L 50.179688 128.730469 L 37.953125 157.304688 L 45.28125 163.011719 L 40.382812 163.011719 L 35.488281 167.910156 L 35.488281 172.808594 L 50.179688 172.808594 L 50.179688 177.703125 L 45.28125 182.601562 L 35.488281 187.5 L 35.488281 192.398438 L 30.589844 197.292969 L 30.589844 211.984375 L 40.382812 221.78125 L 30.589844 221.78125 L 30.589844 229.417969 L 62.402344 236.472656 L 65.21875 236.472656 C 64.988281 234.890625 64.871094 233.234375 64.871094 231.574219 C 64.871094 212.679688 80.257812 197.292969 99.152344 197.292969 C 118.046875 197.292969 133.433594 212.679688 133.433594 231.574219 C 133.433594 233.234375 133.320312 234.890625 133.085938 236.472656 L 261.152344 236.472656 C 260.921875 234.890625 260.804688 233.234375 260.804688 231.574219 C 260.804688 212.679688 276.191406 197.292969 295.089844 197.292969 C 313.984375 197.292969 329.371094 212.679688 329.371094 231.574219 C 329.371094 233.234375 329.253906 234.890625 329.023438 236.472656 L 344.0625 236.472656 L 344.0625 221.78125 L 339.164062 221.78125 L 339.164062 216.882812 Z M 104.050781 163.011719 L 59.972656 163.011719 L 55.074219 158.113281 L 59.972656 128.730469 L 118.742188 128.730469 Z M 162.820312 221.78125 L 148.125 221.78125 L 143.230469 211.984375 L 162.820312 211.984375 Z M 182.410156 158.113281 L 177.511719 163.011719 L 128.539062 163.011719 L 123.640625 158.113281 L 128.539062 128.730469 L 187.304688 128.730469 Z M 182.410156 158.113281 " fill-opacity="1" fill-rule="nonzero"/></g><path fill="#3f713e" d="M 295.050781 207.089844 C 281.515625 207.089844 270.5625 218.039062 270.5625 231.574219 C 270.5625 245.109375 281.515625 256.0625 295.050781 256.0625 C 308.585938 256.0625 319.535156 245.109375 319.535156 231.574219 C 319.535156 218.039062 308.585938 207.089844 295.050781 207.089844 Z M 295.050781 241.371094 C 289.652344 241.371094 285.253906 236.972656 285.253906 231.574219 C 285.253906 226.175781 289.652344 221.78125 295.050781 221.78125 C 300.449219 221.78125 304.84375 226.175781 304.84375 231.574219 C 304.84375 236.972656 300.449219 241.371094 295.050781 241.371094 Z M 295.050781 241.371094 " fill-opacity="1" fill-rule="nonzero"/><path fill="#3f713e" d="M 99.152344 207.089844 C 85.617188 207.089844 74.664062 218.039062 74.664062 231.574219 C 74.664062 245.109375 85.617188 256.0625 99.152344 256.0625 C 112.6875 256.0625 123.640625 245.109375 123.640625 231.574219 C 123.640625 218.039062 112.6875 207.089844 99.152344 207.089844 Z M 99.152344 241.371094 C 93.753906 241.371094 89.359375 236.972656 89.359375 231.574219 C 89.359375 226.175781 93.753906 221.78125 99.152344 221.78125 C 104.550781 221.78125 108.949219 226.175781 108.949219 231.574219 C 108.949219 236.972656 104.550781 241.371094 99.152344 241.371094 Z M 99.152344 241.371094 " fill-opacity="1" fill-rule="nonzero"/></svg>